<svg width="32.000488" height="28.800049" viewBox="0 0 32.0005 28.8" fill="none" xmlns="http://www.w3.org/2000/svg" xmlns:xlink="http://www.w3.org/1999/xlink">
	<defs/>
	<path d="M4.11 23.25C3.79 23.28 3.53 23.23 3.32 23.07C3.12 22.9 2.99 22.65 2.93 22.34L0.03 7.25C-0.04 6.92 0 6.66 0.12 6.48C0.27 6.29 0.5 6.17 0.82 6.14C1.14 6.1 1.39 6.16 1.59 6.31C1.79 6.45 1.93 6.69 1.99 7.02L3.13 12.92C3.21 13.34 3.6 13.62 4.02 13.58L6.31 13.31C6.39 13.3 6.44 13.41 6.37 13.46C6.3 13.53 6.2 13.45 6.24 13.36L9.62 5.66C9.72 5.42 9.86 5.26 10.04 5.17C10.22 5.07 10.41 5.03 10.61 5.06C10.81 5.07 10.98 5.14 11.14 5.26C11.29 5.38 11.39 5.53 11.45 5.74C11.52 5.93 11.5 6.14 11.4 6.38L8.16 13.6C8.11 13.73 7.95 13.77 7.84 13.7C7.65 13.58 7.73 13.3 7.96 13.33C8.65 13.43 9.29 13.66 9.88 14.02C10.68 14.51 11.43 15.24 12.14 16.19L15.3 20.55C15.48 20.79 15.56 21.01 15.56 21.22C15.54 21.42 15.47 21.58 15.33 21.71C15.19 21.84 15.02 21.93 14.82 21.97C14.63 22.02 14.43 22.01 14.22 21.94C14.01 21.86 13.83 21.72 13.67 21.49L10.68 17.29C10.02 16.37 9.34 15.74 8.65 15.4C7.98 15.06 7.21 14.94 6.33 15.04C4.85 15.21 3.84 16.6 4.12 18.06L4.9 22.11C4.96 22.43 4.93 22.69 4.8 22.9C4.68 23.09 4.44 23.21 4.11 23.25Z" fill="#ECD948" fill-opacity="1.000000" fill-rule="evenodd"/>
	<path d="M6.62 28.71C6.31 28.61 6.11 28.45 6.01 28.23C5.94 28 5.96 27.73 6.09 27.43L12.09 13.48C12.22 13.17 12.4 12.97 12.63 12.88C12.87 12.77 13.14 12.77 13.45 12.88L18.86 14.73C20.58 15.32 21.72 16.19 22.3 17.34C22.87 18.48 22.84 19.79 22.2 21.29C21.56 22.78 20.6 23.77 19.31 24.29C18.03 24.8 16.52 24.76 14.8 24.17L12.54 23.39C11.28 22.96 9.9 23.57 9.37 24.8L7.96 28.08C7.83 28.37 7.66 28.59 7.43 28.71C7.21 28.82 6.93 28.82 6.62 28.71ZM12.06 18.55C11.47 19.92 12.17 21.5 13.57 21.99L15.24 22.56C16.47 22.98 17.51 23.03 18.37 22.71C19.24 22.38 19.9 21.7 20.35 20.66C20.8 19.61 20.82 18.7 20.41 17.95C20.02 17.18 19.21 16.59 17.98 16.17L15.94 15.47C14.68 15.04 13.3 15.65 12.78 16.88L12.06 18.55Z" fill="#9C407B" fill-opacity="1.000000" fill-rule="nonzero"/>
	<path d="M28.31 4.76C28.26 5.06 28.57 6.09 28.54 6.32C28.5 6.56 28.46 6.76 28.27 6.92C28.09 7.07 27.31 7.29 26.91 7.07C26.5 6.84 26 5.2 25.81 5.37C25.62 5.55 24.87 7.11 24.92 7.41C24.97 7.7 26.69 8.83 26.4 9.51C26.1 10.19 23.54 12.9 22.89 12.62C22.24 12.33 22.15 10.97 22.59 10.45C23.03 9.92 23.52 9.71 23.65 9.58C23.78 9.45 23.1 9.06 22.96 8.96C22.82 8.86 22.3 9.28 21.46 9.39C20.45 9.59 20.04 9.42 19.97 9.52C19.94 9.56 19.34 10.43 18.66 10.73C17.94 11.05 17.15 10.79 17.09 10.99C16.98 11.37 16.9 12.76 16.63 13.52C16.37 14.29 14.58 13.3 14.76 12.49C14.95 11.67 15.23 9.71 15.4 9.4C15.56 9.1 16.54 9.04 16.61 8.89C16.68 8.74 16.14 7.88 16.28 6.95C16.36 6.36 16.79 5.81 16.97 5.46C17.14 5.11 15.84 4.14 15.33 4.81C14.82 5.48 15.7 6.91 15.22 7.87C14.74 8.83 13.39 8.74 13.02 8.57C12.86 8.49 12.72 8.41 12.6 8.29C12.25 7.94 12.11 7.38 12.14 6.88C12.16 6.55 12.22 6.29 12.31 6.52C12.64 7.34 13.11 7.01 13.19 6.83C13.27 6.64 13.3 6.69 13.26 6.34C13.23 5.99 13.04 5.84 12.93 5.45C12 2.2 15.57 2.08 16.24 2.43C16.9 2.78 17.2 3.13 17.52 3.64C17.85 4.15 17.86 4.78 17.95 4.88C18.03 4.99 18.28 4.83 18.79 4.87C19.3 4.92 20.3 5.09 20.67 5.09C21.04 5.09 21.57 4.92 21.5 4.72C21.43 4.52 20.51 2.87 20.67 2.71C20.82 2.55 21.6 3.34 21.65 3.23C21.7 3.12 20.9 2.18 21 2.04C21.11 1.9 22.39 2.32 22.52 2.2C22.65 2.08 22.31 1.81 21.63 1.17C20.96 0.53 23.29 1.67 23.39 1.51C23.5 1.35 22.69 0.44 22.66 0.13C22.63 -0.17 24.08 1.17 24.31 1.06C24.54 0.95 24.54 -0.23 24.75 0.03C24.95 0.3 25.04 1.01 25.21 0.85C25.39 0.69 25.6 -0.05 25.72 0.15C25.84 0.34 25.66 0.47 26.01 0.61C26.35 0.75 26.81 1.08 27.04 1.36C27.27 1.65 27.15 1.71 27.34 1.93C27.53 2.14 28.45 1.68 28.52 1.86C28.58 2.04 27.89 2.41 28.14 2.51C28.38 2.62 31.93 1.26 31.99 1.55C32.06 1.84 28.61 3.29 28.49 3.53C28.36 3.78 28.45 4.21 28.51 4.25C28.58 4.29 28.59 4.34 28.73 4.31C28.87 4.28 29.06 4.14 29.1 4.19C29.15 4.25 28.98 4.57 28.75 4.67C28.57 4.76 28.34 4.62 28.31 4.76Z" fill="#4E82A6" fill-opacity="1.000000" fill-rule="evenodd"/>
</svg>
